<?xml version="1.0" encoding="UTF-8" standalone="no" ?>
<!DOCTYPE svg PUBLIC "-//W3C//DTD SVG 1.1//EN" "http://www.w3.org/Graphics/SVG/1.1/DTD/svg11.dtd">
<svg xmlns="http://www.w3.org/2000/svg" xmlns:xlink="http://www.w3.org/1999/xlink" version="1.1" width="1280" height="1024" viewBox="0 0 1280 1024" xml:space="preserve">
<desc>Created with Fabric.js 3.6.3</desc>
<defs>
</defs>
<g transform="matrix(1.9662058371735787 0 0 1.9662058371735787 640.2456813819576 512.1966205837173)" id="background-logo"  >
<rect style="stroke: none; stroke-width: 1; stroke-dasharray: none; stroke-linecap: butt; stroke-dashoffset: 0; stroke-linejoin: miter; stroke-miterlimit: 4; fill: rgb(146,26,26); fill-opacity: 0; fill-rule: nonzero; opacity: 1;"  paint-order="stroke"  x="-325" y="-260" rx="0" ry="0" width="650" height="520" />
</g>
<g transform="matrix(1.9699870022450665 0 0 1.9699870022450665 657.5717126981349 400.95630666053717)" id="logo-logo"  >
<g style=""  paint-order="stroke"   >
		<g transform="matrix(1.1018057637497969 0 0 1.1018057637497969 0 0)"  >
<g style=""  paint-order="stroke"   >
		<g transform="matrix(1 0 0 1 5 5.384999999999991)"  >
<linearGradient id="SVGID_1_563348" gradientUnits="userSpaceOnUse" gradientTransform="matrix(1 0 0 1 -95 -94.49499999999999)"  x1="0" y1="0" x2="0" y2="190">
<stop offset="0%" style="stop-color:rgb(98,39,116);stop-opacity: 1"/>
<stop offset="100%" style="stop-color:rgb(197,51,100);stop-opacity: 1"/>
</linearGradient>
<polygon style="stroke: none; stroke-width: 1; stroke-dasharray: none; stroke-linecap: butt; stroke-dashoffset: 0; stroke-linejoin: miter; stroke-miterlimit: 4; fill: url(#SVGID_1_563348); fill-rule: nonzero; opacity: 1;"  paint-order="stroke"  points="83.94999999999999,-94.49499999999999 83.94999999999999,83.73500000000001 -95,83.73500000000001 -95,94.495 95,94.495 95,-94.49499999999999 83.94999999999999,-94.49499999999999 " />
</g>
		<g transform="matrix(1 0 0 1 -10.5 -10.379999999999995)"  >
<linearGradient id="SVGID_2_563349" gradientUnits="userSpaceOnUse" gradientTransform="matrix(1 0 0 1 -89.5 -89.5)"  x1="0" y1="0" x2="0" y2="180">
<stop offset="0%" style="stop-color:rgb(98,39,116);stop-opacity: 1"/>
<stop offset="100%" style="stop-color:rgb(197,51,100);stop-opacity: 1"/>
</linearGradient>
<polygon style="stroke: none; stroke-width: 1; stroke-dasharray: none; stroke-linecap: butt; stroke-dashoffset: 0; stroke-linejoin: miter; stroke-miterlimit: 4; fill: url(#SVGID_2_563349); fill-rule: nonzero; opacity: 1;"  paint-order="stroke"  points="89.5,89.5 89.5,-68.73 89.5,-79.5 89.5,-89.5 -89.5,-89.5 -89.5,89.5 -79.5,89.5 -69.5,89.5 89.5,89.5 " />
</g>
</g>
</g>
</g>
</g>
<g transform="matrix(1.9699870022450665 0 0 1.9699870022450665 641.3230180238104 760.0973313294037)" id="text-logo-path"  >
<path style="stroke: none; stroke-width: 1; stroke-dasharray: none; stroke-linecap: butt; stroke-dashoffset: 0; stroke-linejoin: miter; stroke-miterlimit: 10; fill: rgb(196,60,108); fill-rule: nonzero; opacity: 1;"  paint-order="stroke"  transform=" translate(-158.98, 21.759999999999998)" d="M 29.22 0 L 2.73 0 L 2.73 -3.36 Q 2.73 -4.65 3.98 -4.88 L 3.98 -4.88 L 8.48 -5.74 L 8.48 -51.45 Q 4.77 -52.11 3.98 -52.38 L 3.98 -52.38 Q 2.73 -52.62 2.73 -53.91 L 2.73 -53.91 L 2.73 -57.27 L 29.22 -57.27 Q 42.03 -57.27 49.61 -49.45 L 49.61 -49.45 Q 57.42 -41.52 57.42 -28.63 L 57.42 -28.63 Q 57.42 -22.19 55.35 -16.88 L 55.35 -16.88 Q 53.36 -11.8 49.61 -7.85 L 49.61 -7.85 Q 41.88 0 29.22 0 L 29.22 0 Z M 16.33 -51.05 L 16.33 -6.25 L 29.22 -6.25 Q 38.55 -6.25 43.98 -12.15 L 43.98 -12.15 Q 49.45 -18.09 49.45 -28.63 L 49.45 -28.63 Q 49.45 -34.02 48.01 -38.09 L 48.01 -38.09 Q 46.45 -42.42 43.98 -45.12 L 43.98 -45.12 Q 38.63 -51.05 29.22 -51.05 L 29.22 -51.05 L 16.33 -51.05 Z M 63.09 -21.13 L 63.09 -21.13 Q 63.09 -25.31 64.45 -28.95 L 64.45 -28.95 Q 65.94 -32.85 68.2 -35.35 L 68.2 -35.35 Q 70.63 -38.01 74.22 -39.61 L 74.22 -39.61 Q 77.66 -41.13 82.11 -41.13 L 82.11 -41.13 L 81.95 -41.13 Q 85.47 -41.13 88.67 -39.92 L 88.67 -39.92 Q 91.8 -38.75 93.95 -36.48 L 93.95 -36.48 Q 96.41 -33.87 97.5 -30.78 L 97.5 -30.78 Q 98.75 -27.23 98.75 -23.13 L 98.75 -23.13 Q 98.75 -21.33 98.44 -20.9 L 98.44 -20.9 Q 98.01 -20.31 96.99 -20.31 L 96.99 -20.31 L 70.12 -20.31 Q 70.12 -16.6 71.09 -13.59 L 71.09 -13.59 Q 71.91 -11.09 73.79 -8.95 L 73.79 -8.95 Q 75.51 -6.99 77.81 -6.09 L 77.81 -6.09 Q 80.31 -5.12 82.93 -5.12 L 82.93 -5.12 Q 85.78 -5.12 87.58 -5.66 L 87.58 -5.66 Q 88.95 -6.09 90.94 -7.03 L 90.94 -7.03 Q 92.3 -7.7 93.32 -8.32 Q 94.34 -8.95 94.92 -8.95 L 94.92 -8.95 Q 95.82 -8.95 96.29 -8.24 L 96.29 -8.24 L 98.28 -5.59 Q 97.15 -4.14 95.08 -2.89 L 95.08 -2.89 Q 92.5 -1.33 91.17 -0.9 L 91.17 -0.9 Q 88.52 -0.04 86.84 0.23 L 86.84 0.23 Q 84.41 0.63 82.46 0.63 L 82.46 0.63 Q 78.13 0.63 74.69 -0.78 Q 71.25 -2.19 68.52 -5.04 L 68.52 -5.04 Q 66.02 -7.62 64.53 -11.84 L 64.53 -11.84 Q 63.09 -15.9 63.09 -21.13 Z M 70.43 -24.65 L 70.43 -24.65 L 92.46 -24.65 Q 92.46 -26.95 91.72 -29.1 L 91.72 -29.1 Q 90.86 -31.56 89.8 -32.73 L 89.8 -32.73 Q 88.44 -34.22 86.52 -35.04 Q 84.61 -35.86 82.11 -35.86 L 82.11 -35.86 L 82.19 -35.94 Q 76.99 -35.94 74.14 -32.97 L 74.14 -32.97 Q 71.13 -29.84 70.43 -24.65 Z M 102.03 -37.03 L 102.03 -37.03 L 102.03 -40.47 L 120.2 -40.47 L 120.2 -37.03 Q 120.2 -35.74 118.98 -35.51 L 118.98 -35.51 Q 118.79 -35.43 118.24 -35.35 Q 117.7 -35.27 116.64 -35.1 Q 115.59 -34.92 114.57 -34.73 L 114.57 -34.73 L 123.13 -12.97 Q 123.87 -11.05 124.57 -7.19 L 124.57 -7.19 Q 125.59 -11.33 126.17 -12.97 L 126.17 -12.97 L 134.8 -34.73 Q 134.53 -34.8 133.95 -34.9 Q 133.36 -35 132.3 -35.2 Q 131.25 -35.39 130.27 -35.59 L 130.27 -35.59 Q 129.06 -35.82 129.06 -37.11 L 129.06 -37.11 L 129.06 -40.47 L 144.26 -40.47 L 147.07 -40.47 L 147.07 -36.95 Q 147.07 -35.74 145.86 -35.51 L 145.86 -35.51 Q 145.78 -35.51 141.95 -34.73 L 141.95 -34.73 L 127.77 0.08 L 121.29 0.08 L 107.15 -34.73 Q 106.37 -35 104.96 -35.2 L 104.96 -35.2 Q 104.53 -35.27 104.1 -35.35 Q 103.67 -35.43 103.48 -35.47 Q 103.28 -35.51 103.2 -35.51 L 103.2 -35.51 Q 102.03 -35.74 102.03 -37.03 Z M 192.3 0 L 151.21 0 L 151.21 -3.36 Q 151.21 -4.65 152.38 -4.88 L 152.38 -4.88 L 156.95 -5.74 L 156.95 -51.45 Q 153.09 -52.15 152.38 -52.38 L 152.38 -52.38 Q 151.21 -52.62 151.21 -53.91 L 151.21 -53.91 L 151.21 -57.27 L 192.3 -57.27 L 192.3 -43.44 L 188.48 -43.44 Q 187.03 -43.44 186.8 -44.8 L 186.8 -44.8 Q 186.8 -44.88 186.74 -45.59 Q 186.68 -46.29 186.52 -47.81 Q 186.37 -49.34 186.25 -50.98 L 186.25 -50.98 L 164.8 -50.98 L 164.8 -31.91 L 185.9 -31.91 L 185.9 -25.86 L 164.8 -25.86 L 164.8 -6.25 L 186.25 -6.25 Q 186.72 -11.52 186.72 -11.99 L 186.72 -11.99 Q 186.91 -13.28 188.48 -13.28 L 188.48 -13.28 L 192.3 -13.28 L 192.3 0 Z M 196.56 13.75 L 196.56 10.31 Q 196.56 9.02 197.81 8.79 L 197.81 8.79 L 202.3 7.93 L 202.3 -34.65 Q 198.59 -35.31 197.81 -35.59 L 197.81 -35.59 Q 196.56 -35.82 196.56 -37.11 L 196.56 -37.11 L 196.56 -40.47 L 202.3 -40.47 L 206.64 -40.47 Q 208.09 -40.47 208.55 -39.02 L 208.55 -39.02 L 209.1 -34.26 L 209.18 -34.26 Q 214.96 -41.29 222.77 -41.29 L 222.77 -41.29 Q 229.88 -41.29 233.98 -36.02 L 233.98 -36.02 Q 238.16 -30.39 238.16 -20.47 L 238.16 -20.47 Q 238.16 -11.37 233.52 -5.51 L 233.52 -5.51 Q 228.63 0.55 221.17 0.55 Q 213.71 0.55 209.49 -4.14 L 209.49 -4.14 L 209.49 7.85 Q 209.65 7.85 211.68 8.32 L 211.68 8.32 Q 213.75 8.79 213.98 8.79 L 213.98 8.79 Q 215.27 9.06 215.27 10.31 L 215.27 10.31 L 215.27 13.75 L 196.56 13.75 Z M 209.49 -29.38 L 209.49 -9.77 Q 213.09 -4.96 218.79 -4.96 L 218.79 -4.96 Q 224.73 -4.96 227.73 -8.95 L 227.73 -8.95 Q 230.78 -12.97 230.78 -20.47 L 230.78 -20.47 Q 230.78 -35.51 220.39 -35.51 L 220.39 -35.51 Q 214.1 -35.51 209.49 -29.38 L 209.49 -29.38 Z M 244.92 -11.68 Q 243.63 -15.08 243.63 -20.31 Q 243.63 -25.55 244.92 -28.95 L 244.92 -28.95 Q 246.48 -33.05 248.83 -35.51 L 248.83 -35.51 Q 251.41 -38.2 255 -39.69 L 255 -39.69 Q 258.52 -41.13 263.01 -41.13 L 263.01 -41.13 Q 267.46 -41.13 270.98 -39.69 L 270.98 -39.69 Q 274.57 -38.2 277.15 -35.51 L 277.15 -35.51 Q 279.57 -32.97 280.98 -28.95 L 280.98 -28.95 Q 282.34 -25.04 282.34 -20.31 Q 282.34 -15.59 280.98 -11.68 L 280.98 -11.68 Q 279.57 -7.66 277.15 -5.12 L 277.15 -5.12 Q 274.61 -2.46 270.98 -0.98 L 270.98 -0.98 Q 267.46 0.47 263.01 0.47 L 263.01 0.47 Q 258.52 0.47 255 -0.98 L 255 -0.98 Q 251.37 -2.46 248.83 -5.12 L 248.83 -5.12 Q 246.48 -7.58 244.92 -11.68 L 244.92 -11.68 Z M 250.98 -20.16 L 250.98 -20.16 Q 250.98 -17.11 251.8 -13.75 L 251.8 -13.75 Q 252.46 -10.98 254.02 -8.95 L 254.02 -8.95 Q 255.43 -7.11 257.73 -6.09 L 257.73 -6.09 Q 260.35 -4.96 263.01 -4.96 L 263.01 -4.96 Q 269.18 -4.96 271.95 -8.95 L 271.95 -8.95 Q 274.92 -13.2 274.92 -20.23 Q 274.92 -27.27 271.95 -31.52 L 271.95 -31.52 Q 269.18 -35.51 263.01 -35.51 L 263.01 -35.51 Q 259.92 -35.51 257.73 -34.57 L 257.73 -34.57 Q 255.66 -33.67 254.02 -31.52 L 254.02 -31.52 Q 252.46 -29.49 251.8 -26.72 L 251.8 -26.72 Q 250.98 -23.36 250.98 -20.16 Z M 287.46 -1.6 L 287.46 -1.6 L 287.46 -12.15 L 290.35 -12.15 Q 291.29 -12.15 291.52 -11.21 L 291.52 -11.21 Q 291.52 -11.09 291.58 -10.57 Q 291.64 -10.04 291.78 -8.71 Q 291.91 -7.38 292.03 -6.09 L 292.03 -6.09 Q 295.2 -4.49 300.27 -4.49 L 300.27 -4.49 Q 304.14 -4.49 306.48 -6.48 L 306.48 -6.48 Q 308.59 -8.36 308.59 -10.55 L 308.59 -10.55 Q 308.59 -12.81 307.62 -13.91 L 307.62 -13.91 Q 306.37 -15.31 305.23 -15.86 L 305.23 -15.86 Q 303.4 -16.76 301.88 -17.11 L 301.88 -17.11 Q 295.98 -19.02 294.41 -19.69 L 294.41 -19.69 Q 292.66 -20.47 290.82 -21.91 L 290.82 -21.91 Q 287.46 -24.69 287.46 -29.45 L 287.46 -29.45 Q 287.46 -34.3 291.29 -37.62 L 291.29 -37.62 Q 295.31 -41.13 302.66 -41.13 L 302.66 -41.13 L 302.58 -41.13 Q 306.68 -41.13 313.13 -38.95 L 313.13 -38.95 L 313.13 -36.17 L 313.13 -28.55 L 310.04 -28.55 Q 308.91 -28.55 308.67 -29.69 L 308.67 -29.69 Q 308.67 -29.77 308.61 -30.31 Q 308.55 -30.86 308.42 -32.21 Q 308.28 -33.55 308.16 -34.96 L 308.16 -34.96 Q 304.26 -35.86 301.95 -35.86 L 301.95 -35.86 L 301.88 -35.86 Q 298.63 -35.86 296.33 -34.06 L 296.33 -34.06 Q 294.18 -32.38 294.18 -30.39 L 294.18 -30.39 Q 294.18 -28.32 295.16 -27.34 L 295.16 -27.34 Q 296.76 -25.51 299.77 -24.57 L 299.77 -24.57 Q 300.43 -24.38 302.21 -23.85 Q 303.98 -23.32 304.73 -23.05 L 304.73 -23.05 L 308.59 -21.6 Q 310 -21.09 311.95 -19.53 L 311.95 -19.53 Q 315.23 -16.95 315.23 -12.46 L 315.23 -12.46 Q 315.23 -6.64 311.29 -3.2 L 311.29 -3.2 Q 306.99 0.55 300.59 0.55 L 300.59 0.55 Q 293.91 0.55 287.46 -1.6 Z" stroke-linecap="round" />
</g>
<g transform="matrix(1.9699870022450665 0 0 1.9699870022450665 641.5432948907606 372.7743841410993)" id="tagline-e3896798-1d36-42ac-90ba-a97ce02ab7a0-logo-path"  >
<path style="stroke: none; stroke-width: 0; stroke-dasharray: none; stroke-linecap: butt; stroke-dashoffset: 0; stroke-linejoin: miter; stroke-miterlimit: 4; fill: rgb(255,255,255); fill-rule: nonzero; opacity: 1;"  paint-order="stroke"  transform=" translate(-53.385000000000005, 50.825)" d="M 51.86 0 L 4.85 0 L 4.85 -5.96 Q 4.85 -8.25 7.07 -8.67 L 7.07 -8.67 L 15.05 -10.19 L 15.05 -91.32 Q 8.46 -92.49 7.07 -92.98 L 7.07 -92.98 Q 4.85 -93.4 4.85 -95.68 L 4.85 -95.68 L 4.85 -101.65 L 51.86 -101.65 Q 74.61 -101.65 88.06 -87.78 L 88.06 -87.78 Q 101.92 -73.7 101.92 -50.82 L 101.92 -50.82 Q 101.92 -39.38 98.25 -29.95 L 98.25 -29.95 Q 94.71 -20.94 88.06 -13.94 L 88.06 -13.94 Q 74.33 0 51.86 0 L 51.86 0 Z M 28.98 -90.62 L 28.98 -11.09 L 51.86 -11.09 Q 68.43 -11.09 78.07 -21.56 L 78.07 -21.56 Q 87.78 -32.1 87.78 -50.82 L 87.78 -50.82 Q 87.78 -60.39 85.21 -67.6 L 85.21 -67.6 Q 82.44 -75.3 78.07 -80.08 L 78.07 -80.08 Q 68.57 -90.62 51.86 -90.62 L 51.86 -90.62 L 28.98 -90.62 Z" stroke-linecap="round" />
</g>
</svg>